<?xml version="1.0" encoding="UTF-8" standalone="no"?>
<!-- Created with Inkscape (http://www.inkscape.org/) -->

<svg
   xmlns:dc="http://purl.org/dc/elements/1.1/"
   xmlns:cc="http://creativecommons.org/ns#"
   xmlns:rdf="http://www.w3.org/1999/02/22-rdf-syntax-ns#"
   xmlns:svg="http://www.w3.org/2000/svg"
   xmlns="http://www.w3.org/2000/svg"
   xmlns:sodipodi="http://sodipodi.sourceforge.net/DTD/sodipodi-0.dtd"
   xmlns:inkscape="http://www.inkscape.org/namespaces/inkscape"
   width="240"
   height="240"
   id="svg3072"
   version="1.1"
   inkscape:version="0.48.4 r9939"
   sodipodi:docname="eating.svg">
  <defs
     id="defs3074">
    <inkscape:path-effect
       effect="skeletal"
       id="path-effect4116"
       is_visible="true"
       pattern="m -50.406978,357.88601 c 0,-2.76 2.24,-5 5,-5 2.76,0 5,2.24 5,5 0,2.76 -2.24,5 -5,5 -2.76,0 -5,-2.24 -5,-5 z"
       copytype="single_stretched"
       prop_scale="1"
       scale_y_rel="false"
       spacing="0"
       normal_offset="0"
       tang_offset="0"
       prop_units="false"
       vertical_pattern="false"
       fuse_tolerance="0" />
    <inkscape:path-effect
       fuse_tolerance="0"
       vertical_pattern="false"
       prop_units="false"
       tang_offset="0"
       normal_offset="0"
       spacing="0"
       scale_y_rel="false"
       prop_scale="1"
       copytype="single_stretched"
       pattern="m 72.45016,374.31459 c 0,-2.76 2.24,-5 5,-5 2.76,0 5,2.24 5,5 0,2.76 -2.24,5 -5,5 -2.76,0 -5,-2.24 -5,-5 z"
       is_visible="true"
       id="path-effect4112"
       effect="skeletal" />
    <inkscape:path-effect
       effect="skeletal"
       id="path-effect4108"
       is_visible="true"
       pattern="m -161.12126,374.31459 c 0,-2.76 2.24,-5 5,-5 2.76,0 5,2.24 5,5 0,2.76 -2.24,5 -5,5 -2.76,0 -5,-2.24 -5,-5 z"
       copytype="single_stretched"
       prop_scale="1"
       scale_y_rel="false"
       spacing="0"
       normal_offset="0"
       tang_offset="0"
       prop_units="false"
       vertical_pattern="false"
       fuse_tolerance="0" />
    <inkscape:path-effect
       fuse_tolerance="0"
       vertical_pattern="false"
       prop_units="false"
       tang_offset="0"
       normal_offset="0"
       spacing="0"
       scale_y_rel="false"
       prop_scale="1"
       copytype="single_stretched"
       pattern="m -4.7548959,50.938363 c 0,-2.76 2.24,-5 5.00000002,-5 2.75999998,0 4.99999998,2.24 4.99999998,5 0,2.76 -2.24,5 -4.99999998,5 -2.76000002,0 -5.00000002,-2.24 -5.00000002,-5 z"
       is_visible="true"
       id="path-effect4135"
       effect="skeletal" />
    <inkscape:path-effect
       effect="skeletal"
       id="path-effect4137"
       is_visible="true"
       pattern="m 228.81653,50.938363 c 0,-2.76 2.24,-5 5,-5 2.76,0 5,2.24 5,5 0,2.76 -2.24,5 -5,5 -2.76,0 -5,-2.24 -5,-5 z"
       copytype="single_stretched"
       prop_scale="1"
       scale_y_rel="false"
       spacing="0"
       normal_offset="0"
       tang_offset="0"
       prop_units="false"
       vertical_pattern="false"
       fuse_tolerance="0" />
    <inkscape:path-effect
       fuse_tolerance="0"
       vertical_pattern="false"
       prop_units="false"
       tang_offset="0"
       normal_offset="0"
       spacing="0"
       scale_y_rel="false"
       prop_scale="1"
       copytype="single_stretched"
       pattern="m 105.95939,34.509792 c 0,-2.76 2.24,-5 5,-5 2.76,0 5,2.24 5,5 0,2.76 -2.24,5 -5,5 -2.76,0 -5,-2.24 -5,-5 z"
       is_visible="true"
       id="path-effect4139"
       effect="skeletal" />
  </defs>
  <sodipodi:namedview
     id="base"
     pagecolor="#ffffff"
     bordercolor="#666666"
     borderopacity="1.0"
     inkscape:pageopacity="0.0"
     inkscape:pageshadow="2"
     inkscape:zoom="0.98994949"
     inkscape:cx="195.34535"
     inkscape:cy="134.35116"
     inkscape:document-units="px"
     inkscape:current-layer="layer1"
     showgrid="false"
     inkscape:window-width="1366"
     inkscape:window-height="744"
     inkscape:window-x="0"
     inkscape:window-y="24"
     inkscape:window-maximized="1" />
  <metadata
     id="metadata3077">
    <rdf:RDF>
      <cc:Work
         rdf:about="">
        <dc:format>image/svg+xml</dc:format>
        <dc:type
           rdf:resource="http://purl.org/dc/dcmitype/StillImage" />
        <dc:title></dc:title>
      </cc:Work>
    </rdf:RDF>
  </metadata>
  <g
     inkscape:label="Layer 1"
     inkscape:groupmode="layer"
     id="layer1"
     transform="translate(0,-812.36218)">
    <g
       id="g4061"
       inkscape:export-filename="/home/wompt/g4049.png"
       inkscape:export-xdpi="90"
       inkscape:export-ydpi="90"
       transform="matrix(0.52595129,0,0,0.52595129,-79.764978,666.5624)">
      <path
         style="fill:#000000;fill-opacity:1;stroke:none"
         d="m 290.7288,513.57427 c 0,13.64063 40.47307,24.6823 90.36905,24.6823 49.89599,0 90.34061,-11.04167 90.34061,-24.6823 l 0,-21.30202 0.0629,-4.46084 c 27.6237,-3.7468 49.42317,-19.19105 55.55759,-42.08502 7.86285,-29.34456 -9.87844,-75.91954 -48.37622,-76.85358 -9.97533,-0.24202 -4.81464,9.74905 -32.2759,28.69142 22.57141,-22.56965 18.96693,-38.29395 17.46664,-40.98218 -8.11733,-14.54459 -21.23125,-28.01069 -38.27355,-37.85006 -16.29162,-9.40597 -33.65778,-14.0645 -49.70582,-14.24635 l 0,-2e-5 c -23.45483,-0.26577 -42.52664,10.02255 -54.42617,26.92872 -13.04636,18.53555 1.66558,21.3174 6.10965,26.18534 -5.27594,-2.82919 -18.31864,-4.43193 -21.2375,-4.43193 -44.51153,0 -80.58712,27.36597 -80.58713,61.10859 -1e-5,29.69067 28.82449,54.44422 65.85747,59.96107"
         id="path4051"
         inkscape:connector-curvature="0"
         sodipodi:nodetypes="cssccsscssscscssc" />
      <path
         style="fill:#000000;fill-opacity:1;stroke:none"
         d="m 420.19378,709.05002 c -18.77342,-23.16812 -25.80146,-32.6619 -43.33493,-48.90337 l -7.59617,-8.15626 c 0,0 -25.21977,-30.37299 -52.63164,-56.29957 -35.04553,-33.14661 -45.6523,-37.07 -67.65609,-44.51077 0.52166,10.77762 1.09101,14.14145 5.87614,22.48617 20.53378,35.8086 65.3587,83.57442 85.18232,104.69726 l 18.82883,-16.0091 6.38687,5.86478 c 0,0 13.56513,29.57618 42.05679,53.97415 1.68172,1.44008 4.49741,-0.16369 6.57802,-0.92068 2.84214,-1.03405 6.50685,-2.02837 7.69301,-4.81047 1.12202,-2.63166 1.46868,-3.89272 -1.38315,-7.41214 z"
         id="path4053"
         inkscape:connector-curvature="0"
         sodipodi:nodetypes="sccscscccssss" />
      <g
         id="g4055"
         transform="matrix(-0.05178863,-1.0330016,-1.0941515,0.04889427,1156.971,1045.0108)">
        <path
           sodipodi:nodetypes="szscszscsszscszscs"
           inkscape:connector-curvature="0"
           d="m 473.37394,610.69675 c 43.8944,-28.85715 35.0159,-45.23957 29.92675,-50.17187 -5.08917,-4.93231 -24.19656,-14.87776 -50.14469,30.79662 -19.40172,34.15129 -12.74751,29.07159 -75.07176,98.68011 61.89915,-69.54697 51.40003,-73.55417 70.40724,-107.31013 24.28726,-43.13309 44.94868,-28.92687 52.91252,-21.20851 7.96385,7.71838 18.37489,35.5559 -18.77282,53.69407 -19.54767,9.54457 -23.09241,-1.09202 -104.54743,74.79395 59.48376,-56.12388 42.44336,-44.53154 95.29019,-79.27424 z m -8.15134,-6.3229 c 45.27754,-36.4924 38.48362,-39.93757 36.77444,-41.59406 -1.70915,-1.65648 -8.33676,-10.46097 -42.54262,35.77149 -9.80353,13.25045 -22.19635,29.67379 -81.26625,91.39184 60.29551,-69.69068 51.23856,-78.67887 66.86649,-112.47557 20.31026,-43.92269 50.09653,-22.88928 56.97905,-16.638 6.88252,6.25128 27.28217,35.51205 -14.8466,57.47185 -33.23549,17.32413 -37.5583,3.08597 -109.00623,71.66479 66.82591,-67.93415 73.73826,-74.87014 87.04172,-85.59234 z"
           style="fill:none;stroke:#000000;stroke-width:1.28909349;stroke-miterlimit:4;stroke-opacity:1;stroke-dasharray:none"
           id="path4057" />
        <path
           sodipodi:nodetypes="cccsscc"
           inkscape:connector-curvature="0"
           id="path4059"
           d="m 396.53012,658.56755 c 3.60197,0.1469 13.69478,9.79411 13.11557,12.76521 l -51.76538,53.76065 c -1.03123,0.61769 -2.73924,0.3823 -3.74085,0.12202 -5.53064,-1.43539 -9.0836,-5.00593 -9.76046,-9.5405 -0.16974,-1.13719 -0.17315,-2.14655 0.46052,-3.27429 z"
           style="fill:#000000;fill-opacity:1;stroke:none" />
      </g>
    </g>
    <g
       transform="matrix(0.52595129,0,0,0.52595129,-75.623347,659.65563)"
       id="g4118">
      <path
         inkscape:export-ydpi="90"
         inkscape:export-xdpi="90"
         inkscape:export-filename="/home/wompt/g4049.png"
         sodipodi:nodetypes="cscssscsssscccsscsssc"
         inkscape:connector-curvature="0"
         id="path4019"
         d="m 370.84333,301.45516 c -23.45483,-0.26577 -42.52664,10.02255 -54.42617,26.92872 -13.04636,18.53555 1.66558,21.3174 6.10965,26.18534 -5.27594,-2.82919 -18.31864,-4.43193 -21.2375,-4.43193 -44.51153,0 -80.58714,27.36597 -80.58713,61.10859 -1e-5,33.74261 36.0756,61.10858 80.58713,61.10858 0.39064,0 0.77653,-0.0242 1.16586,-0.0284 -10.53944,4.04007 -16.77713,8.9628 -16.77713,14.30322 l 0,23.91453 c 0,13.64063 40.47307,24.6823 90.36905,24.6823 49.89599,0 90.34061,-11.04167 90.34061,-24.6823 l 0,-21.30202 c -11.51218,0.80252 -17.89024,-1.35618 -29.6093,-6.76534 13.21014,3.07105 14.37389,3.81851 29.32495,2.3045 27.6237,-3.7468 49.77041,-19.19105 55.90483,-42.08502 7.86285,-29.34456 -9.87844,-75.91954 -48.37622,-76.85358 -9.97533,-0.24202 -4.81464,9.74905 -32.2759,28.69142 22.57141,-22.56965 18.96693,-38.29395 17.46664,-40.98218 -8.11733,-14.54459 -21.23125,-28.01069 -38.27355,-37.85006 -16.29162,-9.40597 -33.65778,-14.0645 -49.70582,-14.24635 z"
         style="fill:#ffffff;stroke:none" />
      <path
         inkscape:export-ydpi="90"
         inkscape:export-xdpi="90"
         inkscape:export-filename="/home/wompt/g4049.png"
         sodipodi:nodetypes="sccscscccssss"
         inkscape:connector-curvature="0"
         id="path4025"
         d="m 415.14302,706.01956 c -18.77342,-23.16812 -25.80146,-32.6619 -43.33493,-48.90337 l -7.59617,-8.15626 c 0,0 -25.21977,-30.37299 -52.63164,-56.29957 -35.04553,-33.14661 -45.6523,-37.07 -67.65609,-44.51077 0.52166,10.77762 1.09101,14.14145 5.87614,22.48617 20.53378,35.8086 65.3587,83.57442 85.18232,104.69726 l 18.82883,-16.0091 6.38687,5.86478 c 0,0 13.56513,29.57618 42.05679,53.97415 1.68172,1.44008 4.49741,-0.16369 6.57802,-0.92068 2.84214,-1.03405 6.50685,-2.02837 7.69301,-4.81047 1.12202,-2.63166 1.46868,-3.89272 -1.38315,-7.41214 z"
         style="fill:#ffffff;fill-opacity:1;stroke:#ffffff;stroke-width:0.94416845;stroke-opacity:1" />
      <g
         inkscape:export-filename="/home/wompt/g4049.png"
         inkscape:export-ydpi="90"
         inkscape:export-xdpi="90"
         transform="matrix(-0.05178863,-1.0330016,-1.0941515,0.04889427,1151.9202,1041.9803)"
         id="g4047">
        <path
           id="path4035"
           style="fill:none;stroke:#ffffff;stroke-width:1.28909349;stroke-miterlimit:4;stroke-opacity:1;stroke-dasharray:none"
           d="m 473.37394,610.69675 c 43.8944,-28.85715 35.0159,-45.23957 29.92675,-50.17187 -5.08917,-4.93231 -24.19656,-14.87776 -50.14469,30.79662 -19.40172,34.15129 -12.74751,29.07159 -75.07176,98.68011 61.89915,-69.54697 51.40003,-73.55417 70.40724,-107.31013 24.28726,-43.13309 44.94868,-28.92687 52.91252,-21.20851 7.96385,7.71838 18.16491,35.17457 -18.77282,53.69407 -36.01325,18.05597 -23.09241,-1.09202 -104.54743,74.79395 59.48376,-56.12388 42.44336,-44.53154 95.29019,-79.27424 z m -8.15134,-6.3229 c 45.27754,-36.4924 38.48362,-39.93757 36.77444,-41.59406 -1.70915,-1.65648 -8.33676,-10.46097 -42.54262,35.77149 -9.80353,13.25045 -22.19635,29.67379 -81.26625,91.39184 60.29551,-69.69068 51.23856,-78.67887 66.86649,-112.47557 20.31026,-43.92269 50.09653,-22.88928 56.97905,-16.638 6.88252,6.25128 27.28217,35.51205 -14.8466,57.47185 -33.23549,17.32413 -37.5583,3.08597 -109.00623,71.66479 66.82591,-67.93415 73.73826,-74.87014 87.04172,-85.59234 z"
           inkscape:connector-curvature="0"
           sodipodi:nodetypes="szscszscsszscszscs" />
        <path
           style="fill:#ffffff;fill-opacity:1;stroke:none"
           d="m 396.53012,658.56755 c 3.60197,0.1469 13.69478,9.79411 13.11557,12.76521 l -51.76538,53.76065 c -1.03123,0.61769 -2.73924,0.3823 -3.74085,0.12202 -5.53064,-1.43539 -9.0836,-5.00593 -9.76046,-9.5405 -0.16974,-1.13719 -0.17315,-2.14655 0.46052,-3.27429 z"
           id="path4044"
           inkscape:connector-curvature="0"
           sodipodi:nodetypes="cccsscc" />
      </g>
    </g>
  </g>
</svg>
