<?xml version="1.0" encoding="UTF-8" standalone="no"?>
<!-- Created with Inkscape (http://www.inkscape.org/) -->

<svg
   xmlns:dc="http://purl.org/dc/elements/1.1/"
   xmlns:cc="http://creativecommons.org/ns#"
   xmlns:rdf="http://www.w3.org/1999/02/22-rdf-syntax-ns#"
   xmlns:svg="http://www.w3.org/2000/svg"
   xmlns="http://www.w3.org/2000/svg"
   xmlns:sodipodi="http://sodipodi.sourceforge.net/DTD/sodipodi-0.dtd"
   xmlns:inkscape="http://www.inkscape.org/namespaces/inkscape"
   width="240"
   height="240"
   id="svg3072"
   version="1.1"
   inkscape:version="0.48.4 r9939"
   sodipodi:docname="eating.svg">
  <defs
     id="defs3074">
    <inkscape:path-effect
       effect="skeletal"
       id="path-effect4116"
       is_visible="true"
       pattern="m -30.203927,338.69311 c 0,-2.76 2.24,-5 5,-5 2.76,0 5,2.24 5,5 0,2.76 -2.24,5 -5,5 -2.76,0 -5,-2.24 -5,-5 z"
       copytype="single_stretched"
       prop_scale="1"
       scale_y_rel="false"
       spacing="0"
       normal_offset="0"
       tang_offset="0"
       prop_units="false"
       vertical_pattern="false"
       fuse_tolerance="0" />
    <inkscape:path-effect
       fuse_tolerance="0"
       vertical_pattern="false"
       prop_units="false"
       tang_offset="0"
       normal_offset="0"
       spacing="0"
       scale_y_rel="false"
       prop_scale="1"
       copytype="single_stretched"
       pattern="m 92.653211,355.12169 c 0,-2.76 2.24,-5 5,-5 2.759999,0 4.999999,2.24 4.999999,5 0,2.76 -2.24,5 -4.999999,5 -2.76,0 -5,-2.24 -5,-5 z"
       is_visible="true"
       id="path-effect4112"
       effect="skeletal" />
    <inkscape:path-effect
       effect="skeletal"
       id="path-effect4108"
       is_visible="true"
       pattern="m -140.91821,355.12169 c 0,-2.76 2.24,-5 5,-5 2.76,0 5,2.24 5,5 0,2.76 -2.24,5 -5,5 -2.76,0 -5,-2.24 -5,-5 z"
       copytype="single_stretched"
       prop_scale="1"
       scale_y_rel="false"
       spacing="0"
       normal_offset="0"
       tang_offset="0"
       prop_units="false"
       vertical_pattern="false"
       fuse_tolerance="0" />
    <inkscape:path-effect
       fuse_tolerance="0"
       vertical_pattern="false"
       prop_units="false"
       tang_offset="0"
       normal_offset="0"
       spacing="0"
       scale_y_rel="false"
       prop_scale="1"
       copytype="single_stretched"
       pattern="m -4.7548959,50.938363 c 0,-2.76 2.24,-5 5.00000002,-5 2.75999998,0 4.99999998,2.24 4.99999998,5 0,2.76 -2.24,5 -4.99999998,5 -2.76000002,0 -5.00000002,-2.24 -5.00000002,-5 z"
       is_visible="true"
       id="path-effect4135"
       effect="skeletal" />
    <inkscape:path-effect
       effect="skeletal"
       id="path-effect4137"
       is_visible="true"
       pattern="m 228.81653,50.938363 c 0,-2.76 2.24,-5 5,-5 2.76,0 5,2.24 5,5 0,2.76 -2.24,5 -5,5 -2.76,0 -5,-2.24 -5,-5 z"
       copytype="single_stretched"
       prop_scale="1"
       scale_y_rel="false"
       spacing="0"
       normal_offset="0"
       tang_offset="0"
       prop_units="false"
       vertical_pattern="false"
       fuse_tolerance="0" />
    <inkscape:path-effect
       fuse_tolerance="0"
       vertical_pattern="false"
       prop_units="false"
       tang_offset="0"
       normal_offset="0"
       spacing="0"
       scale_y_rel="false"
       prop_scale="1"
       copytype="single_stretched"
       pattern="m 105.95939,34.509792 c 0,-2.76 2.24,-5 5,-5 2.76,0 5,2.24 5,5 0,2.76 -2.24,5 -5,5 -2.76,0 -5,-2.24 -5,-5 z"
       is_visible="true"
       id="path-effect4139"
       effect="skeletal" />
  </defs>
  <sodipodi:namedview
     id="base"
     pagecolor="#ffffff"
     bordercolor="#666666"
     borderopacity="1.0"
     inkscape:pageopacity="0.0"
     inkscape:pageshadow="2"
     inkscape:zoom="0.98994949"
     inkscape:cx="195.34535"
     inkscape:cy="134.35116"
     inkscape:document-units="px"
     inkscape:current-layer="layer1"
     showgrid="false"
     inkscape:window-width="1366"
     inkscape:window-height="744"
     inkscape:window-x="0"
     inkscape:window-y="24"
     inkscape:window-maximized="1">
    <sodipodi:guide
       position="0,0"
       orientation="0,744.09448"
       id="guide3080" />
    <sodipodi:guide
       position="265.71429,905.71429"
       orientation="-1052.3622,0"
       id="guide3082" />
    <sodipodi:guide
       position="1028.5714,262.85714"
       orientation="0,-744.09448"
       id="guide3084" />
    <sodipodi:guide
       position="0,1052.3622"
       orientation="1052.3622,0"
       id="guide3086" />
  </sodipodi:namedview>
  <metadata
     id="metadata3077">
    <rdf:RDF>
      <cc:Work
         rdf:about="">
        <dc:format>image/svg+xml</dc:format>
        <dc:type
           rdf:resource="http://purl.org/dc/dcmitype/StillImage" />
        <dc:title></dc:title>
      </cc:Work>
    </rdf:RDF>
  </metadata>
  <g
     inkscape:label="Layer 1"
     inkscape:groupmode="layer"
     id="layer1"
     transform="translate(0,-812.36218)">
    <g
       id="g4141"
       transform="matrix(0.41603423,0,0,0.41603423,-42.455107,723.32645)"
       inkscape:export-filename="/home/wompt/g4051.png"
       inkscape:export-xdpi="90"
       inkscape:export-ydpi="90">
      <path
         id="path4127"
         d="m 610.86619,516.05017 c 0,30.78309 -44.99028,170.02343 -219.59627,170.02343 -174.606,0 -223.88198,-139.24034 -223.88198,-170.02343 147.90268,61.47161 359.27138,41.80843 443.47825,0 z"
         style="fill:#000000;fill-opacity:1;stroke:none"
         inkscape:connector-curvature="0"
         sodipodi:nodetypes="czcc" />
      <path
         style="fill:#000000;fill-rule:evenodd;stroke:none"
         d="m 279.06823,460.8671 c -0.44784,0.007 -0.86963,-0.68481 -1.40903,-1.87274 -0.5394,-1.18793 -1.20862,-2.8852 -2.31253,-4.79105 -0.88493,-1.54637 -2.09713,-3.25204 -3.64509,-5.11722 -1.11434,-1.32874 -2.44911,-2.75118 -3.91017,-4.41788 -1.46106,-1.6667 -3.04999,-3.57799 -4.53499,-5.98016 -1.24647,-2.03557 -2.27204,-4.45481 -2.77283,-7.25116 -0.48436,-3.03007 -0.28467,-6.14511 0.50906,-9.07046 0.90123,-3.22887 2.24249,-6.33511 3.91236,-9.28 1.66988,-2.9449 3.66743,-5.72824 5.82237,-8.34455 1.54711,-1.87835 3.13137,-3.62235 4.67824,-5.25471 1.89205,-2.12929 3.50274,-4.41412 4.643,-6.71555 1.14026,-2.30144 1.80888,-4.61952 1.91811,-6.86534 0,0 0,0 0,0 0.20413,-2.19442 -0.0738,-4.39601 -0.59596,-6.49535 -0.5222,-2.09935 -1.28882,-4.0961 -2.12918,-5.92087 0,0 0,0 0,0 -1.02752,-2.18602 -2.18156,-4.12816 -3.2907,-5.84215 -1.10913,-1.71399 -2.17411,-3.19983 -3.07815,-4.46856 0,0 0,0 0,0 -1.01866,-1.42564 -1.83211,-2.56636 -2.34739,-3.44117 0,0 0,0 0,0 -0.2702,-0.45865 -0.45575,-0.84163 -0.54829,-1.15219 0,0 0,0 0,0 0,0 0,0 0,0 -0.0458,-0.15754 -0.0675,-0.29626 -0.0641,-0.41655 0,0 0,0 0,0 0,0 0,0 0,0 0.0602,-0.14152 0.084,-0.21927 0.0925,-0.26145 0,0 0,0 0,0 0.008,-0.0418 0.002,-0.0488 0.001,-0.0492 0,0 0,0 0,0 -3e-5,-2e-5 -2e-5,-2e-5 -2e-5,-2e-5 0,0 -1e-5,0 2e-5,1e-5 0,0 0,0 0,0 6.2e-4,3.8e-4 0.009,0.005 0.0468,-0.0157 0,0 0,0 0,0 0.0378,-0.0206 0.10493,-0.0663 0.22209,-0.16515 0,0 0,0 0,0 0,0 0,0 0,0 0.11616,-0.036 0.26075,-0.0491 0.43193,-0.0394 0,0 0,0 0,0 0,0 0,0 0,0 0.33241,0.017 0.76652,0.12133 1.28789,0.31444 0,0 0,0 0,0 0.9946,0.36839 2.32085,1.06682 3.87426,2.1326 0,0 0,0 0,0 1.38071,0.94438 2.95402,2.18397 4.6098,3.7822 1.65577,1.59823 3.39483,3.55586 5.04475,5.94868 0,0 0,0 0,0 1.40612,2.01709 2.7208,4.38827 3.71881,7.11456 0.99802,2.72628 1.67879,5.80844 1.74885,9.19221 0,0 0,0 0,0 -0.03,3.54569 -0.77243,7.13724 -2.17721,10.55159 -1.40478,3.41435 -3.47141,6.64996 -6.0243,9.45909 -1.42773,1.67249 -2.87755,3.34683 -4.27526,5.03612 -1.94685,2.35297 -3.71472,4.64988 -5.15091,6.93766 -1.43619,2.28778 -2.54001,4.56706 -3.22405,6.8769 -0.57241,1.84777 -0.86841,3.63173 -0.71327,5.21179 0.09,1.46281 0.59204,2.98464 1.25251,4.45982 0.82448,1.84964 1.98821,3.62553 3.15501,5.40771 1.16681,1.78219 2.33702,3.5691 3.31809,5.35418 1.36997,2.47092 2.30987,4.90335 2.81007,7.05758 0.6135,2.68246 0.54006,4.82779 0.27327,6.2496 -0.26679,1.42181 -0.71963,2.13463 -1.16747,2.14187 z"
         id="path4129"
         inkscape:path-effect="#path-effect4135"
         inkscape:original-d="m 279.06823,460.8671 c -0.36511,-22.59973 -31.91249,-22.56806 0.0297,-58.05658 20.86402,-23.1804 -9.09138,-44.95179 -9.09138,-44.95179"
         inkscape:connector-curvature="0"
         sodipodi:nodetypes="csc" />
      <path
         sodipodi:nodetypes="csc"
         inkscape:connector-curvature="0"
         inkscape:original-d="m 512.63966,460.8671 c -0.36511,-22.59973 -31.91249,-22.56806 0.0297,-58.05658 20.86402,-23.1804 -9.09138,-44.95179 -9.09138,-44.95179"
         inkscape:path-effect="#path-effect4137"
         id="path4131"
         d="m 512.63966,460.8671 c -0.44784,0.007 -0.86963,-0.68481 -1.40903,-1.87274 -0.5394,-1.18793 -1.20862,-2.8852 -2.31253,-4.79105 -0.88493,-1.54637 -2.09713,-3.25204 -3.64509,-5.11722 -1.11434,-1.32874 -2.44911,-2.75118 -3.91017,-4.41788 -1.46106,-1.6667 -3.04998,-3.57799 -4.53498,-5.98016 -1.24648,-2.03557 -2.27205,-4.45481 -2.77284,-7.25116 -0.48436,-3.03007 -0.28467,-6.14511 0.50906,-9.07046 0.90124,-3.22888 2.2425,-6.33514 3.91238,-9.28004 1.66989,-2.9449 3.66745,-5.72826 5.82241,-8.34458 1.54709,-1.87832 3.13133,-3.6223 4.67817,-5.25464 1.89206,-2.12929 3.50275,-4.41412 4.64301,-6.71555 1.14025,-2.30144 1.80888,-4.61952 1.91811,-6.86534 0.25543,-2.12819 0.0228,-4.27144 -0.46172,-6.3221 -0.48447,-2.05065 -1.22084,-4.00836 -2.03912,-5.80462 -3.28477,-4.33556 -5.87161,-8.0328 -7.53349,-10.79448 -1.66188,-2.76169 -2.39823,-4.58718 -1.92997,-5.12175 0,0 0,0 0,0 0,0 0,0 0,0 0,0 0,0 0,0 0,0 0,0 0,0 0,0 0,0 0,0 0,0 0,0 0,0 0,0 0,0 0,0 10e-6,0 10e-6,0 10e-6,0 0,0 0,0 0,0 0,-1e-5 0,-1e-5 0,-1e-5 0.004,-0.005 0.004,-0.005 0.004,-0.005 0,0 -1e-5,-10e-6 0.004,-0.005 0,0 0,0 0,0 0,0 0,0 0,0 0,0 0,0 0,0 0,0 0,0 0,0 0,0 0,0 0,0 0,0 0,0 0,0 0,0 0,0 0,0 0,0 0,0 0,0 0,0 0,0 0,0 0,0 0,0 10e-6,0 0.48202,-0.51923 2.13018,0.31302 4.75117,2.325 2.62099,2.01198 6.21541,5.20432 10.53791,9.34777 1.42821,2.0456 2.77314,4.45582 3.80888,7.2308 1.03574,2.77497 1.76171,5.91547 1.88308,9.36546 -0.03,3.54569 -0.77243,7.13724 -2.17721,10.55159 -1.40478,3.41435 -3.47141,6.64996 -6.02429,9.45909 -1.42773,1.67247 -2.87753,3.34679 -4.27522,5.03606 -1.94686,2.35298 -3.71474,4.6499 -5.15094,6.93769 -1.4362,2.28779 -2.54003,4.56708 -3.22408,6.87693 -0.5724,1.84777 -0.8684,3.63173 -0.71326,5.21179 0.09,1.46281 0.59203,2.98464 1.25251,4.45982 0.82447,1.84964 1.98821,3.62553 3.15501,5.40772 1.16681,1.78218 2.33702,3.56909 3.31809,5.35417 1.36997,2.47092 2.30987,4.90335 2.81007,7.05758 0.6135,2.68246 0.54006,4.82779 0.27327,6.2496 -0.26679,1.42181 -0.71963,2.13463 -1.16747,2.14187 z"
         style="fill:#000000;fill-rule:evenodd;stroke:none" />
      <path
         style="fill:#000000;fill-rule:evenodd;stroke:none"
         d="m 396.56333,444.43851 c -0.44784,0.007 -0.86405,-0.93754 -1.45249,-2.59497 -0.58844,-1.65742 -1.36485,-4.04598 -2.77771,-6.77727 -1.13412,-2.2121 -2.73349,-4.66222 -4.80638,-7.30746 -1.62098,-2.06285 -3.56731,-4.25078 -5.67843,-6.76815 -1.78944,-2.11695 -3.71086,-4.5124 -5.45052,-7.43658 -1.58954,-2.66715 -2.88992,-5.79539 -3.497,-9.35797 -0.5994,-3.85944 -0.31054,-7.8558 0.72897,-11.63983 1.34095,-4.89758 3.62138,-9.51138 6.30528,-13.73953 2.04591,-3.25456 4.33092,-6.40543 6.78087,-9.45627 2.02644,-2.52345 4.11051,-4.91289 6.1955,-7.1907 2.9278,-3.23329 5.33553,-6.65359 6.88725,-10.19889 0,0 0,0 0,0 1.36948,-3.0914 2.15327,-6.31957 2.32978,-9.42732 0,0 0,0 0,0 0.22802,-3.19839 -0.22271,-6.35089 -1.01878,-9.31865 -0.79608,-2.96777 -1.93751,-5.75051 -3.18234,-8.26656 0,0 0,0 0,0 -1.50962,-3.00996 -3.18445,-5.65377 -4.79119,-7.96361 -1.60674,-2.30985 -3.14641,-4.28588 -4.46137,-5.95255 0,0 0,0 0,0 -1.48125,-1.87359 -2.6793,-3.34483 -3.46565,-4.44283 0,0 0,0 0,0 -0.41229,-0.57564 -0.70895,-1.046 -0.87753,-1.41517 0,0 0,0 0,0 -0.0861,-0.1885 -0.13784,-0.34991 -0.15433,-0.48508 0,0 0,0 0,0 0.0314,-0.12211 0.0429,-0.19784 0.0486,-0.24644 0,0 0,0 0,0 0,0 0,0 0,0 0,0 0,0 0,0 0.0125,-0.0378 0.0165,-0.059 0.0173,-0.0708 -0.002,-0.0142 -0.002,-0.0143 -0.002,-0.0143 0,0 0,-2e-5 0.006,-0.008 0.019,0.002 0.0381,-0.009 0.0706,-0.0317 0,0 0,0 0,0 0,0 0,0 0,0 0,0 0,0 0,0 0.0453,-0.0194 0.11538,-0.0517 0.22394,-0.11611 0,0 0,0 0,0 0.13635,-0.0209 0.31021,-0.0119 0.51875,0.0267 0,0 0,0 0,0 0.40845,0.0755 0.95368,0.26719 1.61714,0.57719 0,0 0,0 0,0 1.26571,0.59141 2.9766,1.62018 4.99263,3.13374 0,0 0,0 0,0 1.79167,1.34216 3.83971,3.07177 5.99314,5.26569 2.15342,2.19391 4.41333,4.85302 6.54542,8.06963 0,0 0,0 0,0 1.81064,2.70819 3.50022,5.86523 4.77222,9.45984 1.272,3.59461 2.12575,7.62765 2.17209,12.01544 0,0 0,0 0,0 0,4.26263 -0.82269,8.67936 -2.51903,12.91051 0,0 0,0 0,0 -1.93474,4.78194 -4.83315,9.23244 -8.33828,13.14627 -1.95983,2.21608 -3.90696,4.48047 -5.78549,6.81261 -2.27113,2.81954 -4.36699,5.64957 -6.22355,8.51413 -2.40582,3.7526 -4.41056,7.40278 -5.50987,11.03118 -0.81818,2.70645 -1.20335,5.37174 -0.93317,7.78116 0.1963,2.22904 0.97313,4.45987 1.97667,6.56663 1.13489,2.36797 2.64629,4.61807 4.14172,6.84496 1.78135,2.62994 3.54562,5.19387 5.01518,7.72361 1.89491,3.25099 3.22197,6.42786 3.97136,9.24784 0.92245,3.50789 0.95621,6.34451 0.73846,8.23581 -0.21775,1.8913 -0.67618,2.85686 -1.12402,2.8641 z"
         id="path4133"
         inkscape:path-effect="#path-effect4139"
         inkscape:original-d="m 396.56333,444.43851 c -0.49648,-30.73113 -43.39463,-30.68806 0.0404,-78.94538 28.37091,-31.52072 -12.36246,-61.12547 -12.36246,-61.12547"
         inkscape:connector-curvature="0"
         sodipodi:nodetypes="csc" />
    </g>
    <path
       inkscape:connector-curvature="0"
       id="path4125"
       d="m 211.68616,933.6866 c 0,12.8068 -41.30222,23.18871 -92.25106,23.18871 -50.948878,0 -92.251091,-10.38191 -92.251091,-23.18871 0,-12.80688 41.302213,-23.18886 92.251091,-23.18886 50.94884,0 92.25106,10.38198 92.25106,23.18886 z"
       style="fill:#000000;fill-opacity:1;stroke:none"
       inkscape:export-filename="/home/wompt/g4051.png"
       inkscape:export-xdpi="90"
       inkscape:export-ydpi="90" />
    <path
       style="fill:#ffffff;fill-opacity:1;stroke:none"
       d="m 213.36719,930.32448 c 0,12.80681 -41.30221,23.18879 -92.25105,23.18879 -50.94889,0 -92.251097,-10.38198 -92.251097,-23.18879 0,-12.80674 41.302207,-23.18879 92.251097,-23.18879 50.94884,0 92.25105,10.38205 92.25105,23.18879 z"
       id="path4101"
       inkscape:connector-curvature="0"
       inkscape:export-filename="/home/wompt/g4051.png"
       inkscape:export-xdpi="90"
       inkscape:export-ydpi="90" />
    <path
       sodipodi:type="arc"
       style="fill:#800000;fill-opacity:1;stroke:none"
       id="path4099"
       sodipodi:cx="-561.42859"
       sodipodi:cy="492.36218"
       sodipodi:rx="261.42856"
       sodipodi:ry="65.714287"
       d="m -300.00003,492.36218 a 261.42856,65.714287 0 1 1 -522.85712,0 261.42856,65.714287 0 1 1 522.85712,0 z"
       transform="matrix(0.3008316,0,0,0.25561049,290.08264,811.45745)"
       inkscape:export-filename="/home/wompt/g4051.png"
       inkscape:export-xdpi="90"
       inkscape:export-ydpi="90" />
    <path
       id="path4104"
       d="m 213.36719,930.32448 c 0,12.80681 -18.7175,70.73562 -91.35958,70.73562 -72.642075,0 -93.142567,-57.92881 -93.142567,-70.73562 61.53258,25.57432 149.469187,17.39376 184.502147,0 z"
       style="fill:#ffffff;fill-opacity:1;stroke:none"
       inkscape:connector-curvature="0"
       sodipodi:nodetypes="czcc"
       inkscape:export-filename="/home/wompt/g4051.png"
       inkscape:export-xdpi="90"
       inkscape:export-ydpi="90" />
    <path
       style="fill:#ffffff;fill-rule:evenodd;stroke:none"
       d="m 75.327864,907.36648 c -0.628436,0.0101 -1.206744,-0.53207 -1.915572,-1.25022 -0.708829,-0.71815 -1.601921,-1.62284 -2.740732,-2.58009 0,0 -10e-7,0 -10e-7,0 -0.50252,-0.41956 -1.105875,-0.90493 -1.799646,-1.56461 -0.69377,-0.65969 -1.478965,-1.49439 -2.289637,-2.6551 -0.68968,-1.01049 -1.269218,-2.27901 -1.597506,-3.83176 -0.297642,-1.68399 -0.242688,-3.3686 0.152157,-4.90028 0.876712,-3.22335 2.532436,-6.11418 4.447026,-8.44492 0.687265,-0.83665 1.385615,-1.58254 2.063937,-2.24994 1.187896,-1.37406 2.112643,-2.66158 2.25022,-3.77058 0.432805,-0.99742 0.217516,-2.38802 -0.106207,-3.73581 -1.062335,-1.85768 -1.843992,-3.54166 -2.256407,-4.9092 -0.412416,-1.36755 -0.455012,-2.418 0.01249,-2.95144 10e-7,0 10e-7,0 2e-6,0 0.0099,-0.011 0.0099,-0.011 0.0099,-0.011 0,0 -9e-6,-3e-5 0.01,-0.011 0,0 1e-6,0 1e-6,0 0.481227,-0.51814 1.434682,-0.45796 2.805053,0.16237 1.370372,0.62034 3.158236,1.80147 5.256567,3.46806 1.543259,1.8486 2.975154,4.56826 3.294372,8.20908 0.0098,1.8538 -0.321139,3.71872 -0.982863,5.46303 -0.661725,1.74431 -1.654249,3.3669 -2.908473,4.73322 -0.559196,0.70752 -1.123107,1.38376 -1.660973,2.03135 -1.498394,1.80406 -2.644917,3.24964 -3.087255,4.63491 -0.173513,0.4541 -0.32478,0.80764 -0.356368,1.04163 -0.08249,0.21921 -0.0265,0.59032 0.07718,1.04042 0.150151,0.60819 0.510157,1.30749 0.909668,2.08266 0.399512,0.77517 0.838311,1.62501 1.207555,2.50091 0,0 0,0 0,0 0.486661,1.09071 0.758116,2.15932 0.865666,3.10811 0.107551,0.9488 0.05295,1.77786 -0.09592,2.43873 -0.297729,1.32175 -0.935776,1.94135 -1.564212,1.9515 z"
       id="path4106"
       inkscape:path-effect="#path-effect4108"
       inkscape:original-d="m 75.327864,907.36648 c -0.151895,-9.40227 -13.276684,-9.38911 0.01234,-24.15357 8.680152,-9.6438 -3.782324,-18.70143 -3.782324,-18.70143"
       inkscape:connector-curvature="0"
       sodipodi:nodetypes="csc"
       inkscape:export-filename="/home/wompt/g4051.png"
       inkscape:export-xdpi="90"
       inkscape:export-ydpi="90" />
    <path
       sodipodi:nodetypes="csc"
       inkscape:connector-curvature="0"
       inkscape:original-d="m 172.50161,907.36648 c -0.15197,-9.40227 -13.2767,-9.38911 0.0126,-24.15357 8.68014,-9.6438 -3.78231,-18.70143 -3.78231,-18.70143"
       inkscape:path-effect="#path-effect4112"
       id="path4110"
       d="m 172.50161,907.36648 c -0.62844,0.0102 -1.20675,-0.53206 -1.91558,-1.25021 -0.70884,-0.71815 -1.60193,-1.62283 -2.74075,-2.5801 0,0 0,0 0,0 -0.50253,-0.41956 -1.10588,-0.90493 -1.79965,-1.56462 -0.69377,-0.65969 -1.47896,-1.4944 -2.28963,-2.65513 -0.68967,-1.01051 -1.26919,-2.27904 -1.59745,-3.8318 -0.29762,-1.684 -0.24263,-3.36862 0.15224,-4.90028 0.87676,-3.22333 2.53253,-6.11414 4.44714,-8.44486 0.68728,-0.83665 1.38565,-1.58254 2.06398,-2.24994 1.18789,-1.37405 2.11263,-2.66157 2.25021,-3.77056 0.4328,-0.99743 0.21751,-2.38802 -0.10621,-3.73582 -1.06233,-1.85767 -1.84398,-3.54166 -2.2564,-4.9092 -0.41241,-1.36754 -0.45501,-2.41799 0.0125,-2.95143 0,0 0,0 0,0 0.01,-0.011 0.01,-0.011 0.01,-0.011 0,0 -1e-5,-3e-5 0.01,-0.011 0,0 0,0 0,0 0.48123,-0.51814 1.43468,-0.45796 2.80505,0.16238 1.37037,0.62033 3.15823,1.80146 5.25656,3.46805 1.54326,1.84861 2.97515,4.56826 3.29436,8.20909 0.01,1.85379 -0.32114,3.71872 -0.98287,5.46303 -0.66172,1.74431 -1.65425,3.3669 -2.90847,4.73323 -0.55922,0.70752 -1.12315,1.38377 -1.66103,2.03137 -1.49844,1.80407 -2.645,3.24966 -3.08738,4.63495 -0.17352,0.45411 -0.3248,0.80765 -0.35639,1.04162 -0.0825,0.21921 -0.0265,0.5903 0.0772,1.04039 0.15013,0.60818 0.51013,1.30747 0.90963,2.08264 0.39951,0.77516 0.8383,1.625 1.20754,2.50089 0,0 0,0 0,0 0.48666,1.09071 0.75812,2.15931 0.86567,3.1081 0.10756,0.9488 0.053,1.77785 -0.0959,2.43873 -0.29772,1.32175 -0.93576,1.94135 -1.5642,1.95151 z"
       style="fill:#ffffff;fill-rule:evenodd;stroke:none"
       inkscape:export-filename="/home/wompt/g4051.png"
       inkscape:export-xdpi="90"
       inkscape:export-ydpi="90" />
    <path
       style="fill:#ffffff;fill-rule:evenodd;stroke:none"
       d="m 124.20988,900.53157 c -0.62844,0.0102 -1.196,-0.74108 -1.97878,-1.8262 -0.3914,-0.54256 -0.84531,-1.17292 -1.40022,-1.85732 -0.55492,-0.6844 -1.21267,-1.42382 -1.97206,-2.18476 0,0 0,0 0,0 -0.65935,-0.65261 -1.4502,-1.37817 -2.34065,-2.29598 -0.89046,-0.91781 -1.88169,-2.02846 -2.86523,-3.50739 -0.83241,-1.27323 -1.5263,-2.83671 -1.89884,-4.70822 -0.34553,-2.02902 -0.25351,-4.0803 0.24355,-5.96923 1.11396,-4.05246 3.27378,-7.72344 5.80234,-10.79806 0.90763,-1.10364 1.83303,-2.10536 2.73395,-3.02009 0.92665,-1.05668 1.73866,-2.14245 2.32624,-3.20242 0.58757,-1.05997 0.94987,-2.09451 1.02908,-3.0825 0.45298,-1.83279 -0.0595,-3.96365 -0.71974,-5.88706 -1.63185,-2.49293 -2.8761,-4.69318 -3.60868,-6.41834 -0.73258,-1.72515 -0.95291,-2.97457 -0.48506,-3.50852 0,0 0,0 0,0 0,0 0,0 0,0 0.007,-0.008 0.007,-0.008 0.007,-0.008 0,0 -1e-5,-2e-5 0.007,-0.008 0,0 0,-10e-6 0,-10e-6 0,0 0,0 0,0 0.48158,-0.51863 1.61321,-0.26084 3.30427,0.71597 1.69106,0.97681 3.94215,2.67328 6.61078,4.97467 0.93995,1.21163 1.83233,2.67352 2.5373,4.40057 0.70497,1.72705 1.22206,3.71993 1.37195,5.95807 -3.1e-4,2.28754 -0.4367,4.59513 -1.28887,6.7676 -0.85218,2.17246 -2.12004,4.2086 -3.7072,5.94482 -0.7818,0.95485 -1.57276,1.88691 -2.331,2.80149 -2.11236,2.54793 -3.76297,4.77362 -4.44257,6.98797 -0.27574,0.81133 -0.46409,1.53154 -0.44781,2.11056 -0.0383,0.538 0.13207,1.20408 0.37849,1.91695 0.32302,0.92642 0.88906,1.90169 1.48526,2.93499 0.5962,1.0333 1.22249,2.12334 1.74857,3.23229 0,0 0,0 0,0 0.67666,1.37303 1.08979,2.7173 1.29835,3.91511 0.20857,1.19781 0.21485,2.24938 0.10297,3.09374 -0.11189,0.84436 -0.33966,1.48233 -0.60881,1.90155 -0.26916,0.41922 -0.57797,0.62086 -0.89219,0.62594 z"
       id="path4114"
       inkscape:path-effect="#path-effect4116"
       inkscape:original-d="m 124.20988,900.53157 c -0.20657,-12.78515 -18.05368,-12.76723 0.0164,-32.84392 11.80326,-13.11372 -5.14323,-25.43029 -5.14323,-25.43029"
       inkscape:connector-curvature="0"
       sodipodi:nodetypes="csc"
       inkscape:export-filename="/home/wompt/g4051.png"
       inkscape:export-xdpi="90"
       inkscape:export-ydpi="90" />
  </g>
</svg>
