<?xml version="1.0" encoding="UTF-8" standalone="no"?>
<!-- Created with Inkscape (http://www.inkscape.org/) -->

<svg
   xmlns:dc="http://purl.org/dc/elements/1.1/"
   xmlns:cc="http://creativecommons.org/ns#"
   xmlns:rdf="http://www.w3.org/1999/02/22-rdf-syntax-ns#"
   xmlns:svg="http://www.w3.org/2000/svg"
   xmlns="http://www.w3.org/2000/svg"
   xmlns:sodipodi="http://sodipodi.sourceforge.net/DTD/sodipodi-0.dtd"
   xmlns:inkscape="http://www.inkscape.org/namespaces/inkscape"
   inkscape:version="0.48.4 r9939"
   version="1.1"
   id="svg2"
   height="1052.3622047"
   width="744.09448819"
   sodipodi:docname="logo.svg">
  <defs
     id="defs4" />
  <sodipodi:namedview
     id="base"
     pagecolor="#ffffff"
     bordercolor="#666666"
     borderopacity="1.0"
     inkscape:pageopacity="0.0"
     inkscape:pageshadow="2"
     inkscape:zoom="0.35"
     inkscape:cx="124.79058"
     inkscape:cy="370.62696"
     inkscape:document-units="px"
     inkscape:current-layer="layer1"
     showgrid="false"
     inkscape:window-width="1366"
     inkscape:window-height="744"
     inkscape:window-x="0"
     inkscape:window-y="24"
     inkscape:window-maximized="1" />
  <metadata
     id="metadata7">
    <rdf:RDF>
      <cc:Work
         rdf:about="">
        <dc:format>image/svg+xml</dc:format>
        <dc:type
           rdf:resource="http://purl.org/dc/dcmitype/StillImage" />
        <dc:title></dc:title>
      </cc:Work>
    </rdf:RDF>
  </metadata>
  <g
     inkscape:label="Layer 1"
     inkscape:groupmode="layer"
     id="layer1">
    <rect
       style="fill:#800000;stroke:none;stroke-width:1.23388636000000007;stroke-opacity:1"
       id="rect3940"
       width="585.21466"
       height="646.90894"
       x="75.116928"
       y="198.07957"
       inkscape:export-filename="/home/wompt/g4049.png"
       inkscape:export-xdpi="90"
       inkscape:export-ydpi="90" />
    <g
       id="g3942" />
    <g
       id="g4061"
       inkscape:export-filename="/home/wompt/g4050.png"
       inkscape:export-xdpi="90"
       inkscape:export-ydpi="90"
       transform="matrix(1.3669792,0,0,1.3669792,-159.29262,-166.96048)">
      <path
         style="fill:#000000;fill-opacity:1;stroke:none"
         d="m 290.7288,513.57427 c 0,13.64063 40.47307,24.6823 90.36905,24.6823 49.89599,0 90.34061,-11.04167 90.34061,-24.6823 l 0,-21.30202 0.0629,-4.46084 c 27.6237,-3.7468 49.42317,-19.19105 55.55759,-42.08502 7.86285,-29.34456 -9.87844,-75.91954 -48.37622,-76.85358 -9.97533,-0.24202 -4.81464,9.74905 -32.2759,28.69142 22.57141,-22.56965 18.96693,-38.29395 17.46664,-40.98218 -8.11733,-14.54459 -21.23125,-28.01069 -38.27355,-37.85006 -16.29162,-9.40597 -33.65778,-14.0645 -49.70582,-14.24635 l 0,-2e-5 c -23.45483,-0.26577 -42.52664,10.02255 -54.42617,26.92872 -13.04636,18.53555 1.66558,21.3174 6.10965,26.18534 -5.27594,-2.82919 -18.31864,-4.43193 -21.2375,-4.43193 -44.51153,0 -80.58712,27.36597 -80.58713,61.10859 -1e-5,29.69067 28.82449,54.44422 65.85747,59.96107"
         id="path4051"
         inkscape:connector-curvature="0"
         sodipodi:nodetypes="cssccsscssscscssc" />
      <path
         style="fill:#000000;fill-opacity:1;stroke:none"
         d="m 420.19378,709.05002 c -18.77342,-23.16812 -25.80146,-32.6619 -43.33493,-48.90337 l -7.59617,-8.15626 c 0,0 -25.21977,-30.37299 -52.63164,-56.29957 -35.04553,-33.14661 -45.6523,-37.07 -67.65609,-44.51077 0.52166,10.77762 1.09101,14.14145 5.87614,22.48617 20.53378,35.8086 65.3587,83.57442 85.18232,104.69726 l 18.82883,-16.0091 6.38687,5.86478 c 0,0 13.56513,29.57618 42.05679,53.97415 1.68172,1.44008 4.49741,-0.16369 6.57802,-0.92068 2.84214,-1.03405 6.50685,-2.02837 7.69301,-4.81047 1.12202,-2.63166 1.46868,-3.89272 -1.38315,-7.41214 z"
         id="path4053"
         inkscape:connector-curvature="0"
         sodipodi:nodetypes="sccscscccssss" />
      <g
         id="g4055"
         transform="matrix(-0.05178863,-1.0330016,-1.0941515,0.04889427,1156.971,1045.0108)">
        <path
           sodipodi:nodetypes="szscszscsszscszscs"
           inkscape:connector-curvature="0"
           d="m 473.37394,610.69675 c 43.8944,-28.85715 35.0159,-45.23957 29.92675,-50.17187 -5.08917,-4.93231 -24.19656,-14.87776 -50.14469,30.79662 -19.40172,34.15129 -12.74751,29.07159 -75.07176,98.68011 61.89915,-69.54697 51.40003,-73.55417 70.40724,-107.31013 24.28726,-43.13309 44.94868,-28.92687 52.91252,-21.20851 7.96385,7.71838 18.37489,35.5559 -18.77282,53.69407 -19.54767,9.54457 -23.09241,-1.09202 -104.54743,74.79395 59.48376,-56.12388 42.44336,-44.53154 95.29019,-79.27424 z m -8.15134,-6.3229 c 45.27754,-36.4924 38.48362,-39.93757 36.77444,-41.59406 -1.70915,-1.65648 -8.33676,-10.46097 -42.54262,35.77149 -9.80353,13.25045 -22.19635,29.67379 -81.26625,91.39184 60.29551,-69.69068 51.23856,-78.67887 66.86649,-112.47557 20.31026,-43.92269 50.09653,-22.88928 56.97905,-16.638 6.88252,6.25128 27.28217,35.51205 -14.8466,57.47185 -33.23549,17.32413 -37.5583,3.08597 -109.00623,71.66479 66.82591,-67.93415 73.73826,-74.87014 87.04172,-85.59234 z"
           style="fill:none;stroke:#000000;stroke-width:1.28909349;stroke-miterlimit:4;stroke-opacity:1;stroke-dasharray:none"
           id="path4057" />
        <path
           sodipodi:nodetypes="cccsscc"
           inkscape:connector-curvature="0"
           id="path4059"
           d="m 396.53012,658.56755 c 3.60197,0.1469 13.69478,9.79411 13.11557,12.76521 l -51.76538,53.76065 c -1.03123,0.61769 -2.73924,0.3823 -3.74085,0.12202 -5.53064,-1.43539 -9.0836,-5.00593 -9.76046,-9.5405 -0.16974,-1.13719 -0.17315,-2.14655 0.46052,-3.27429 z"
           style="fill:#000000;fill-opacity:1;stroke:none" />
      </g>
    </g>
    <path
       style="fill:#ffffff;stroke:none"
       d="m 358.40685,227.17129 c -32.06227,-0.3633 -58.13303,13.70062 -74.39944,36.811 -17.83411,25.33771 2.27681,29.14045 8.35176,35.79482 -7.2121,-3.86745 -25.0412,-6.05836 -29.03122,-6.05836 -60.84633,0 -110.16094,37.40871 -110.16093,83.53417 -1e-5,46.12545 49.3146,83.53416 110.16093,83.53416 0.534,0 1.0615,-0.0331 1.59371,-0.0388 -14.4072,5.5227 -22.93399,12.25197 -22.93399,19.55221 l 0,32.69066 c 0,18.64646 55.32584,33.74019 123.53261,33.74019 68.20678,0 123.49373,-15.09373 123.49373,-33.74019 l 0,-29.11941 c -15.73691,1.09702 -24.45559,-1.85387 -40.4753,-9.24808 18.05799,4.19806 19.64881,5.21982 40.0866,3.1502 37.76102,-5.1218 68.03511,-26.23377 76.42074,-57.52935 10.74835,-40.1134 -13.50363,-103.78042 -66.12929,-105.05724 -13.63607,-0.33083 -6.58151,13.32675 -44.12048,39.22058 30.85465,-30.85225 25.9274,-52.34704 23.87653,-56.02179 -11.09622,-19.88215 -29.02267,-38.29003 -52.31914,-51.74024 -22.27031,-12.85777 -46.00949,-19.22588 -67.94682,-19.47447 z"
       id="path4019"
       inkscape:connector-curvature="0"
       sodipodi:nodetypes="cscssscsssscccsscsssc"
       inkscape:export-filename="/home/wompt/g4050.png"
       inkscape:export-xdpi="90"
       inkscape:export-ydpi="90" />
    <path
       style="fill:#ffffff;fill-opacity:1;stroke:#ffffff;stroke-width:1.29065859;stroke-opacity:1"
       d="m 418.9636,780.2024 c -25.66287,-31.67034 -35.27006,-44.64814 -59.23795,-66.84989 l -10.3838,-11.14944 c 0,0 -34.4749,-41.51924 -71.94636,-76.96033 -47.90651,-45.31073 -62.40574,-50.67392 -92.48446,-60.8453 0.71309,14.73278 1.49138,19.33107 8.03256,30.73813 28.06925,48.94961 89.34398,114.24449 116.44245,143.11897 l 25.73862,-21.88411 8.73072,8.01703 c 0,0 18.54325,40.43003 57.49076,73.78154 2.29887,1.96856 6.14786,-0.22376 8.99201,-1.25855 3.88515,-1.41352 8.89473,-2.77274 10.51619,-6.57581 1.53377,-3.59742 2.00765,-5.32127 -1.89074,-10.13224 z"
       id="path4025"
       inkscape:connector-curvature="0"
       sodipodi:nodetypes="sccscscccssss"
       inkscape:export-filename="/home/wompt/g4050.png"
       inkscape:export-xdpi="90"
       inkscape:export-ydpi="90" />
    <g
       id="g4047"
       transform="matrix(-0.07079398,-1.4120917,-1.4956823,0.06683745,1426.1227,1239.4537)"
       inkscape:export-xdpi="90"
       inkscape:export-ydpi="90"
       inkscape:export-filename="/home/wompt/g4050.png">
      <path
         sodipodi:nodetypes="szscszscsszscszscs"
         inkscape:connector-curvature="0"
         d="m 473.37394,610.69675 c 43.8944,-28.85715 35.0159,-45.23957 29.92675,-50.17187 -5.08917,-4.93231 -24.19656,-14.87776 -50.14469,30.79662 -19.40172,34.15129 -12.74751,29.07159 -75.07176,98.68011 61.89915,-69.54697 51.40003,-73.55417 70.40724,-107.31013 24.28726,-43.13309 44.94868,-28.92687 52.91252,-21.20851 7.96385,7.71838 18.16491,35.17457 -18.77282,53.69407 -36.01325,18.05597 -23.09241,-1.09202 -104.54743,74.79395 59.48376,-56.12388 42.44336,-44.53154 95.29019,-79.27424 z m -8.15134,-6.3229 c 45.27754,-36.4924 38.48362,-39.93757 36.77444,-41.59406 -1.70915,-1.65648 -8.33676,-10.46097 -42.54262,35.77149 -9.80353,13.25045 -22.19635,29.67379 -81.26625,91.39184 60.29551,-69.69068 51.23856,-78.67887 66.86649,-112.47557 20.31026,-43.92269 50.09653,-22.88928 56.97905,-16.638 6.88252,6.25128 27.28217,35.51205 -14.8466,57.47185 -33.23549,17.32413 -37.5583,3.08597 -109.00623,71.66479 66.82591,-67.93415 73.73826,-74.87014 87.04172,-85.59234 z"
         style="fill:none;stroke:#ffffff;stroke-width:1.28909349;stroke-miterlimit:4;stroke-opacity:1;stroke-dasharray:none"
         id="path4035" />
      <path
         sodipodi:nodetypes="cccsscc"
         inkscape:connector-curvature="0"
         id="path4044"
         d="m 396.53012,658.56755 c 3.60197,0.1469 13.69478,9.79411 13.11557,12.76521 l -51.76538,53.76065 c -1.03123,0.61769 -2.73924,0.3823 -3.74085,0.12202 -5.53064,-1.43539 -9.0836,-5.00593 -9.76046,-9.5405 -0.16974,-1.13719 -0.17315,-2.14655 0.46052,-3.27429 z"
         style="fill:#ffffff;fill-opacity:1;stroke:none" />
    </g>
    <rect
       style="fill:#800000;fill-opacity:1;stroke:none"
       id="rect4068"
       width="522.85712"
       height="500"
       x="965.71429"
       y="260.93362" />
  </g>
</svg>
