<?xml version="1.0" encoding="UTF-8" standalone="no"?>
<!-- Created with Inkscape (http://www.inkscape.org/) -->

<svg
   xmlns:dc="http://purl.org/dc/elements/1.1/"
   xmlns:cc="http://creativecommons.org/ns#"
   xmlns:rdf="http://www.w3.org/1999/02/22-rdf-syntax-ns#"
   xmlns:svg="http://www.w3.org/2000/svg"
   xmlns="http://www.w3.org/2000/svg"
   xmlns:sodipodi="http://sodipodi.sourceforge.net/DTD/sodipodi-0.dtd"
   xmlns:inkscape="http://www.inkscape.org/namespaces/inkscape"
   width="64px"
   height="64px"
   id="svg3211"
   version="1.1"
   inkscape:version="0.48.4 r9939"
   sodipodi:docname="New document 9">
  <defs
     id="defs3213" />
  <sodipodi:namedview
     id="base"
     pagecolor="#ffffff"
     bordercolor="#666666"
     borderopacity="1.0"
     inkscape:pageopacity="0.0"
     inkscape:pageshadow="2"
     inkscape:zoom="5.5"
     inkscape:cx="32"
     inkscape:cy="46.545455"
     inkscape:current-layer="layer1"
     showgrid="true"
     inkscape:document-units="px"
     inkscape:grid-bbox="true"
     inkscape:window-width="1366"
     inkscape:window-height="744"
     inkscape:window-x="0"
     inkscape:window-y="24"
     inkscape:window-maximized="1" />
  <metadata
     id="metadata3216">
    <rdf:RDF>
      <cc:Work
         rdf:about="">
        <dc:format>image/svg+xml</dc:format>
        <dc:type
           rdf:resource="http://purl.org/dc/dcmitype/StillImage" />
        <dc:title></dc:title>
      </cc:Work>
    </rdf:RDF>
  </metadata>
  <g
     id="layer1"
     inkscape:label="Layer 1"
     inkscape:groupmode="layer">
    <g
       id="g4843"
       transform="matrix(3.5555555,0,0,3.5555555,-0.81818181,-0.09090871)">
      <path
         id="path4833"
         d="M 0,0 H 18 V 18 H 0 z"
         inkscape:connector-curvature="0"
         style="fill:none" />
      <path
         id="path4835"
         d="M 2,13.5 H 16 V 12 H 2 v 1.5 z m 0,-4 H 16 V 8 H 2 V 9.5 z M 2,4 V 5.5 H 16 V 4 H 2 z"
         inkscape:connector-curvature="0"
         style="fill:#ffffff;fill-opacity:1" />
    </g>
    <g
       transform="matrix(3.5555555,0,0,3.5555555,-0.81818181,-0.09090871)"
       id="g4956">
      <path
         style="fill:none"
         inkscape:connector-curvature="0"
         d="M 0,0 H 18 V 18 H 0 z"
         id="path4958" />
      <path
         id="path4962"
         d="M 1.4857143,14.357143 H 15.485714 v -1.5 H 1.4857143 v 1.5 z m 0,-4 H 15.485714 V 8.8571429 H 1.4857143 v 1.5000001 z m 0,-5.5000001 v 1.5 H 15.485714 v -1.5 H 1.4857143 z"
         inkscape:connector-curvature="0"
         style="fill:#000000;fill-opacity:1" />
      <path
         style="fill:#ffffff;fill-opacity:1"
         inkscape:connector-curvature="0"
         d="M 2,13.5 H 16 V 12 H 2 v 1.5 z m 0,-4 H 16 V 8 H 2 V 9.5 z M 2,4 V 5.5 H 16 V 4 H 2 z"
         id="path4960" />
    </g>
  </g>
</svg>
